<svg width="512" height="512" viewBox="0 0 512 512" fill="none" xmlns="http://www.w3.org/2000/svg">
<rect width="512" height="512" rx="100" fill="#7357FF"/>
<path opacity="0.929" fill-rule="evenodd" clip-rule="evenodd" d="M252.682 29.0488C254.084 28.9161 255.46 29.0542 256.808 29.463C268.558 37.1565 280.937 43.7836 293.945 49.344C337.989 67.2448 383.653 78.8421 430.937 84.1359C436.597 86.5042 440.586 90.5081 442.903 96.1474C444.602 133.149 444.327 170.151 442.078 207.15C433.843 308.357 390.243 389.677 311.275 451.107C295.49 462.768 278.71 472.984 260.935 481.757C259.083 482.508 257.157 482.922 255.158 483C209.516 463.459 171.142 434.19 140.035 395.192C94.4266 338.239 70.0817 272.935 67 199.28C67.5231 195.271 68.0733 191.267 68.6505 187.269C68.954 186.101 69.6417 185.273 70.7136 184.784C72.0891 185.888 73.4645 186.993 74.8399 188.097C79.5082 198.304 86.5229 206.45 95.8839 212.535C97.4179 213.825 98.6558 215.344 99.5975 217.091C101.859 237.552 105.71 257.709 111.151 277.562C117.493 297.221 125.745 315.998 135.909 333.892C136.872 334.859 137.834 335.825 138.797 336.791C188.573 339.078 226.947 319.612 253.92 278.391C254.738 276.778 255.013 275.121 254.745 273.42C241.946 279.966 228.192 282.727 213.483 281.704C184.534 282.161 162.94 269.874 148.7 244.841C148.975 244.565 149.251 244.289 149.525 244.013C157.641 246.187 165.893 248.119 174.283 249.812C190.759 252.177 206.714 250.244 222.148 244.013C224.205 242.29 226.405 240.771 228.75 239.457C230.089 238.121 231.052 236.74 231.638 235.315C230.433 233.723 229.058 233.17 227.512 233.658C210.672 238.733 193.479 239.147 175.933 234.901C129.732 224.438 99.0604 196.412 83.9177 150.82C81.9995 144.314 81.4494 137.687 82.2672 130.939C82.521 130.27 82.9337 129.717 83.5051 129.283C88.3014 131.721 92.0151 135.311 94.646 140.051C121.662 166.758 153.985 179.046 191.613 176.914C194.053 176.117 195.979 174.737 197.39 172.772C196.548 171.094 195.173 169.99 193.264 169.459C156.656 163.582 125.709 147.153 100.423 120.17C89.6983 106.231 82.4086 90.6303 78.5536 73.367C78.673 72.3515 78.9481 71.385 79.3788 70.4677C77.0293 59.6091 77.4419 48.8401 80.6167 38.1609C81.5791 35.6732 82.9545 33.4642 84.743 31.5339C85.9909 32.1607 87.0912 32.9891 88.044 34.019C109.5 68.8107 137.972 96.2853 173.458 116.443C193.621 126.453 213.978 136.117 234.527 145.436C251.031 154.271 264.373 166.56 274.551 182.299C277.194 187.78 279.67 193.303 281.979 198.866C283.29 196.168 284.528 193.407 285.692 190.583C285.417 190.03 285.142 189.478 284.867 188.926C285.53 182.339 285.942 175.712 286.105 169.045C286.721 148.076 296.487 133.303 315.401 124.726C329.637 120.676 342.566 123.161 354.188 132.182C361.911 133.577 369.063 136.339 375.645 140.466C377.172 141.861 378.548 143.379 379.771 145.022C379.359 145.85 378.946 146.678 378.533 147.507C356.882 151.444 348.079 164.422 352.125 186.441C354.491 197.321 357.242 208.089 360.378 218.747C366.74 262.279 353.124 298.037 319.528 326.022C290.078 349.045 256.519 361.47 218.847 363.299C205.984 373.169 193.605 383.663 181.71 394.778C202.489 417.577 226.833 435.663 254.745 449.036C314.412 417.585 357.875 370.92 385.135 309.041C403.526 263.679 412.604 216.461 412.369 167.388C412.919 149.716 412.919 132.044 412.369 114.372C357.008 107.997 304.467 92.2575 254.745 67.1542C230.585 79.1037 205.552 88.7681 179.647 96.1474C176.996 95.0246 174.384 93.7821 171.807 92.4197C166.96 87.8281 161.87 83.5481 156.54 79.5798C155.231 77.7818 154.13 75.849 153.239 73.7812C152.58 72.3242 152.718 70.9436 153.652 69.6393C184.12 62.2522 213.279 51.3452 241.129 36.9184C244.891 34.0712 248.742 31.448 252.682 29.0488Z" fill="#FEFFFE"/>
</svg>
