<svg width="1060" height="396" viewBox="0 0 1060 396" fill="none" xmlns="http://www.w3.org/2000/svg">
<path d="M93.8973 311.182C93.8973 313.228 93.2488 314.8 91.9677 315.89C90.6787 316.98 89.1682 317.533 87.4442 317.533C85.7124 317.533 84.2019 316.98 82.9208 315.89C81.6318 314.8 80.9912 313.228 80.9912 311.182V183.118C80.9912 181.183 81.6318 179.611 82.9208 178.41C84.2019 177.194 85.6807 176.578 87.3493 176.578H138.151C146.502 176.578 153.659 178.213 159.63 181.475C165.592 184.746 170.337 189.043 173.864 194.367C177.407 199.675 179.78 205.545 180.982 211.967C182.199 218.373 182.199 224.748 180.982 231.083C179.78 237.426 177.375 243.264 173.769 248.588C170.179 253.92 165.434 258.217 159.535 261.479C153.627 264.75 146.502 266.377 138.151 266.377H119.678V311.182C119.678 313.228 118.998 314.8 117.653 315.89C116.301 316.98 114.791 317.533 113.13 317.533C111.461 317.533 109.951 316.98 108.606 315.89C107.254 314.8 106.582 313.228 106.582 311.182V259.836C106.582 258.051 107.254 256.542 108.606 255.318C109.951 254.102 111.461 253.485 113.13 253.485H138.151C145.087 253.485 150.836 251.953 155.391 248.872C159.946 245.799 163.37 241.826 165.671 236.96C167.989 232.078 169.151 226.881 169.151 221.383C169.151 215.869 167.989 210.671 165.671 205.805C163.37 200.939 159.946 196.974 155.391 193.893C150.836 190.797 145.087 189.248 138.151 189.248H93.8973V311.182ZM135.842 240.594C134.173 240.594 132.275 240.594 130.148 240.594C128.037 240.594 126.178 240.183 124.581 239.361C122.975 238.524 122.177 236.826 122.177 234.274C122.177 231.581 122.975 229.819 124.581 228.998C126.178 228.16 128.037 227.765 130.148 227.828C132.275 227.892 134.173 227.923 135.842 227.923C138.033 227.923 139.701 227.283 140.84 225.996C141.995 224.716 142.58 223.207 142.58 221.477C142.58 219.755 141.995 218.247 140.84 216.959C139.701 215.679 138.033 215.032 135.842 215.032H113.13C111.082 215.032 109.508 214.392 108.417 213.104C107.317 211.824 106.772 210.316 106.772 208.586C106.772 206.864 107.317 205.355 108.417 204.067C109.508 202.788 111.082 202.14 113.13 202.14H135.842C140.982 202.14 145.094 203.427 148.179 205.995C151.255 208.57 153.335 211.777 154.41 215.632C155.502 219.471 155.502 223.31 154.41 227.165C153.335 231.004 151.255 234.203 148.179 236.77C145.094 239.322 140.982 240.594 135.842 240.594Z" fill="#7257FF"/>
<path d="M216.514 311.372C216.514 313.417 215.866 314.989 214.585 316.08C213.296 317.17 211.785 317.723 210.061 317.723C208.33 317.723 206.819 317.17 205.538 316.08C204.249 314.989 203.608 313.417 203.608 311.372V182.708C203.608 180.922 204.281 179.422 205.633 178.221C206.977 177.004 208.488 176.388 210.156 176.388H260.768C268.613 176.388 275.612 178.118 281.772 181.57C287.925 185.03 292.954 189.58 296.861 195.22C300.783 200.868 303.354 207.093 304.579 213.894C305.797 220.68 305.441 227.505 303.504 234.369C301.582 241.218 297.873 247.466 292.369 253.106C289.538 255.934 286.422 258.343 283.006 260.342C279.605 262.325 275.984 263.818 272.124 264.829L301.985 307.517C303.14 309.183 303.488 310.858 303.029 312.541C302.587 314.207 301.685 315.511 300.341 316.459C298.988 317.422 297.478 317.849 295.817 317.723C294.149 317.596 292.733 316.696 291.578 315.037L255.96 264.07C254.039 261.503 253.754 259.102 255.106 256.866C256.45 254.615 258.341 253.485 260.768 253.485C266.415 253.485 271.428 252.245 275.794 249.757C280.159 247.253 283.749 243.975 286.58 239.93C289.404 235.886 291.23 231.399 292.053 226.47C292.891 221.541 292.606 216.643 291.199 211.777C289.783 206.895 287.087 202.472 283.101 198.506C280.293 195.56 276.964 193.285 273.105 191.681C269.246 190.062 265.134 189.248 260.768 189.248H216.514V311.372ZM258.649 240.594C257.763 240.594 256.735 240.625 255.581 240.689C254.418 240.752 253.335 240.72 252.322 240.594C248.969 240.341 246.708 239.196 245.553 237.15C244.414 235.088 244.383 233.034 245.458 230.988C246.55 228.95 248.843 227.923 252.322 227.923C254.363 227.923 256.379 227.892 258.364 227.828C260.365 227.765 262.034 227.283 263.362 226.375C264.707 225.474 265.387 223.808 265.387 221.383C265.387 219.447 264.707 217.875 263.362 216.675C262.034 215.458 260.46 214.842 258.649 214.842H235.747C233.699 214.842 232.125 214.202 231.034 212.915C229.935 211.635 229.389 210.126 229.389 208.396C229.389 206.674 229.935 205.165 231.034 203.878C232.125 202.598 233.699 201.95 235.747 201.95H258.649C262.635 201.95 266.067 202.922 268.961 204.857C271.848 206.777 274.094 209.21 275.699 212.156C277.296 215.111 278.103 218.247 278.103 221.572C278.103 226.944 276.173 231.462 272.314 235.127C268.471 238.777 263.916 240.594 258.649 240.594ZM270.606 307.517C271.761 309.183 272.109 310.858 271.65 312.541C271.207 314.207 270.306 315.511 268.961 316.459C267.609 317.422 266.098 317.849 264.438 317.723C262.769 317.596 261.29 316.696 260.009 315.037L242.295 289.443V311.372C242.295 313.417 241.646 314.989 240.365 316.08C239.076 317.17 237.566 317.723 235.842 317.723C234.11 317.723 232.6 317.17 231.318 316.08C230.029 314.989 229.389 313.417 229.389 311.372V269.442C229.389 267.151 230.124 265.421 231.603 264.26C233.074 263.107 234.743 262.585 236.601 262.712C238.475 262.838 239.994 263.739 241.156 265.398L270.606 307.517Z" fill="#7257FF"/>
<path d="M463.289 224.827C463.811 226.494 463.685 228.137 462.91 229.756C462.151 231.359 460.862 232.41 459.051 232.916C457.382 233.421 455.713 233.263 454.053 232.442C452.384 231.604 451.301 230.348 450.795 228.682C446.682 216.13 439.233 205.932 428.462 198.096C423.44 194.517 417.849 191.705 411.697 189.659C405.536 187.597 399.052 186.563 392.243 186.563C380.831 186.563 371.017 188.743 362.793 193.103C354.584 197.464 348.005 203.206 343.054 210.324C338.12 217.449 334.846 225.301 333.248 233.895C331.643 242.474 331.643 251.052 333.248 259.647C334.846 268.241 338.12 276.101 343.054 283.218C348.005 290.32 354.584 296.047 362.793 300.407C371.017 304.768 380.831 306.948 392.243 306.948C399.052 306.948 405.536 305.929 411.697 303.883C417.849 301.821 423.44 299.001 428.462 295.415C439.233 287.855 446.682 277.657 450.795 264.829C451.301 263.044 452.384 261.764 454.053 261.006C455.713 260.231 457.382 260.089 459.051 260.595C460.862 261.124 462.151 262.19 462.91 263.786C463.685 265.39 463.811 267.088 463.289 268.873C460.862 276.314 457.327 283.242 452.692 289.664C448.074 296.071 442.618 301.513 436.338 306C430.052 310.36 423.219 313.82 415.841 316.364C408.454 318.931 400.594 320.219 392.243 320.219C380.048 320.219 369.372 318.165 360.199 314.057C351.026 309.95 343.386 304.412 337.297 297.437C331.2 290.446 326.645 282.586 323.632 273.866C320.611 265.145 319.108 256.14 319.108 246.85C319.108 237.56 320.611 228.555 323.632 219.834C326.645 211.114 331.2 203.27 337.297 196.294C343.386 189.304 351.026 183.75 360.199 179.643C369.372 175.535 380.048 173.481 392.243 173.481C400.594 173.481 408.454 174.706 415.841 177.147C423.219 179.595 430.052 183.055 436.338 187.542C442.618 192.155 448.074 197.637 452.692 203.973C457.327 210.316 460.862 217.267 463.289 224.827ZM352.607 270.042C351.698 268.36 351.468 266.685 351.911 265.018C352.37 263.36 353.374 262.08 354.916 261.195C356.577 260.295 358.246 260.073 359.914 260.532C361.575 260.974 362.864 262.032 363.773 263.691C365.308 266.116 367.134 268.391 369.246 270.516C371.373 272.625 373.651 274.387 376.079 275.793C380.966 278.874 386.359 280.406 392.243 280.406C396.877 280.406 401.211 279.545 405.244 277.815C409.293 276.093 412.725 273.692 415.556 270.611C418.632 267.665 421.036 264.134 422.768 260.026C424.492 255.918 425.362 251.495 425.362 246.755C425.362 242.142 424.492 237.797 422.768 233.706C421.036 229.598 418.632 226.075 415.556 223.121C412.725 220.174 409.293 217.804 405.244 216.011C401.211 214.202 396.877 213.294 392.243 213.294C386.359 213.294 380.966 214.771 376.079 217.717C371.081 220.672 366.976 224.716 363.773 229.851C362.864 231.517 361.575 232.6 359.914 233.105C358.246 233.611 356.577 233.421 354.916 232.536C353.374 231.636 352.37 230.317 351.911 228.587C351.468 226.865 351.698 225.166 352.607 223.5C356.719 216.193 362.295 210.482 369.341 206.374C376.403 202.266 384.034 200.213 392.243 200.213C398.672 200.213 404.706 201.437 410.337 203.878C415.983 206.327 420.933 209.652 425.172 213.863C429.284 218.097 432.519 223.042 434.883 228.682C437.264 234.33 438.458 240.357 438.458 246.755C438.458 253.162 437.264 259.189 434.883 264.829C432.519 270.477 429.284 275.414 425.172 279.648C420.933 284.008 415.983 287.413 410.337 289.854C404.706 292.279 398.672 293.488 392.243 293.488C388.273 293.488 384.335 292.95 380.412 291.876C376.506 290.786 372.82 289.269 369.341 287.326C362.295 282.966 356.719 277.207 352.607 270.042Z" fill="#7257FF"/>
<path d="M484.464 189.248C482.645 189.248 481.095 188.616 479.814 187.352C478.549 186.073 477.916 184.596 477.916 182.929C477.916 181.12 478.549 179.611 479.814 178.41C481.095 177.194 482.645 176.578 484.464 176.578H574.364C576.151 176.578 577.63 177.194 578.792 178.41C579.947 179.611 580.532 181.12 580.532 182.929C580.532 184.596 579.947 186.073 578.792 187.352C577.63 188.616 576.151 189.248 574.364 189.248H484.464ZM484.464 214.842C482.645 214.842 481.095 214.234 479.814 213.009C478.549 211.793 477.916 210.347 477.916 208.681C477.916 206.895 478.549 205.355 479.814 204.067C481.095 202.788 482.645 202.14 484.464 202.14H516.413C518.2 202.14 519.742 202.788 521.031 204.067C522.312 205.355 522.961 206.895 522.961 208.681V311.182C522.961 312.975 522.312 314.515 521.031 315.795C519.742 317.075 518.2 317.723 516.413 317.723C514.744 317.723 513.234 317.075 511.889 315.795C510.537 314.515 509.865 312.975 509.865 311.182V214.842H484.464ZM574.364 202.14C576.151 202.14 577.63 202.788 578.792 204.067C579.947 205.355 580.532 206.895 580.532 208.681C580.532 210.347 579.947 211.793 578.792 213.009C577.63 214.234 576.151 214.842 574.364 214.842H548.551V311.182C548.551 312.975 547.903 314.515 546.622 315.795C545.357 317.075 543.814 317.723 542.003 317.723C540.335 317.723 538.856 317.075 537.575 315.795C536.31 314.515 535.677 312.975 535.677 311.182V208.681C535.677 206.895 536.31 205.355 537.575 204.067C538.856 202.788 540.335 202.14 542.003 202.14H574.364Z" fill="#7257FF"/>
<path d="M674.248 304.831C676.059 304.831 677.601 305.479 678.867 306.758C680.148 308.046 680.796 309.586 680.796 311.372C680.796 313.038 680.148 314.515 678.867 315.795C677.601 317.075 676.059 317.723 674.248 317.723H607.662C605.993 317.723 604.514 317.075 603.233 315.795C601.944 314.515 601.304 313.038 601.304 311.372V182.708C601.304 180.922 601.944 179.422 603.233 178.221C604.514 177.004 605.993 176.388 607.662 176.388H674.248C676.059 176.388 677.601 177.004 678.867 178.221C680.148 179.422 680.796 180.922 680.796 182.708C680.796 184.524 680.148 186.073 678.867 187.352C677.601 188.616 676.059 189.248 674.248 189.248H614.21V304.831H674.248ZM674.248 202.14C676.059 202.14 677.601 202.756 678.867 203.973C680.148 205.197 680.796 206.706 680.796 208.491C680.796 210.158 680.148 211.635 678.867 212.915C677.601 214.202 676.059 214.842 674.248 214.842H639.8V227.734H662.323C664.11 227.734 665.652 228.381 666.941 229.661C668.222 230.925 668.871 232.465 668.871 234.274C668.871 235.941 668.222 237.418 666.941 238.698C665.652 239.962 664.11 240.594 662.323 240.594H633.442C631.647 240.594 630.105 239.962 628.824 238.698C627.535 237.418 626.894 235.941 626.894 234.274V208.491C626.894 206.706 627.535 205.197 628.824 203.973C630.105 202.756 631.647 202.14 633.442 202.14H674.248ZM662.323 253.485C664.11 253.485 665.652 254.102 666.941 255.318C668.222 256.542 668.871 258.051 668.871 259.836C668.871 261.63 668.222 263.17 666.941 264.45C665.652 265.737 664.11 266.377 662.323 266.377H639.8V279.079H674.248C676.059 279.079 677.601 279.727 678.867 281.007C680.148 282.27 680.796 283.803 680.796 285.588C680.796 287.279 680.148 288.764 678.867 290.043C677.601 291.307 676.059 291.939 674.248 291.939H633.442C631.647 291.939 630.105 291.307 628.824 290.043C627.535 288.764 626.894 287.279 626.894 285.588V259.836C626.894 258.051 627.535 256.542 628.824 255.318C630.105 254.102 631.647 253.485 633.442 253.485H662.323Z" fill="#7257FF"/>
<path d="M702.468 321.845C700.23 321.845 698.245 320.976 696.521 319.254C694.813 317.532 693.959 315.55 693.959 313.314C693.959 310.913 694.813 308.851 696.521 307.121C698.245 305.399 700.23 304.53 702.468 304.53H736.6C745.726 304.53 753.436 302.595 759.723 298.716C766.026 294.845 770.81 289.64 774.084 283.107C777.374 276.559 779.019 269.323 779.019 261.4V140.54C779.019 138.123 779.873 136.101 781.581 134.474C783.305 132.831 785.385 132.009 787.813 132.009C790.217 132.009 792.225 132.831 793.854 134.474C795.499 136.101 796.322 138.123 796.322 140.54V261.4C796.322 272.419 793.949 282.499 789.204 291.638C784.475 300.762 777.674 308.085 768.801 313.598C759.921 319.096 749.189 321.845 736.6 321.845H702.468ZM744.634 140.54C744.634 138.123 745.488 136.101 747.196 134.474C748.92 132.831 750.905 132.009 753.143 132.009C755.563 132.009 757.588 132.831 759.217 134.474C760.862 136.101 761.684 138.123 761.684 140.54V261.4C761.684 268.817 759.138 274.979 754.061 279.884C748.976 284.774 742.815 287.215 735.587 287.215H705.062C702.658 287.215 700.586 286.362 698.862 284.655C697.13 282.933 696.268 280.951 696.268 278.715C696.268 276.298 697.13 274.228 698.862 272.522C700.586 270.8 702.658 269.931 705.062 269.931H735.587C737.991 269.931 740.095 269.165 741.914 267.624C743.725 266.068 744.634 263.991 744.634 261.4V140.54Z" fill="#7257FF"/>
<path d="M907.758 76.7456C909.482 75.0236 911.467 74.1547 913.705 74.1547C915.959 74.1547 917.944 74.8419 919.652 76.2085C921.044 77.9384 921.779 79.9291 921.866 82.1804C921.946 84.4159 921.392 86.3828 920.19 88.089L894.061 115.484C892.33 117.19 890.392 118.138 888.241 118.328C886.09 118.501 884.145 117.719 882.421 115.989C880.689 114.433 879.827 112.537 879.827 110.302C879.827 108.074 880.523 106.178 881.915 104.614L907.758 76.7456ZM837.692 314.862C836.656 317.098 835.067 318.646 832.916 319.507C830.765 320.368 828.558 320.455 826.305 319.76C824.233 318.733 822.73 317.137 821.781 314.989C820.832 312.84 820.706 310.652 821.402 308.416L892.005 132.262C892.867 129.861 894.417 128.233 896.655 127.364C898.885 126.503 901.036 126.503 903.108 127.364C904.5 127.704 905.576 128.344 906.335 129.292C907.11 130.24 907.671 131.235 908.011 132.262L978.362 308.416C979.224 310.652 979.224 312.84 978.362 314.989C977.492 317.137 975.942 318.733 973.712 319.76C971.45 320.455 969.204 320.368 966.974 319.507C964.736 318.646 963.186 317.098 962.324 314.862L900.008 158.077L837.692 314.862ZM887.355 270.184C885.094 270.184 883.101 269.323 881.377 267.593C879.669 265.871 878.815 263.801 878.815 261.4C878.815 258.998 879.669 256.976 881.377 255.333C883.101 253.69 885.094 252.869 887.355 252.869H899.755L892.005 233.752C891.309 231.525 891.389 229.289 892.258 227.054C893.12 224.826 894.583 223.357 896.655 222.662C899.059 221.801 901.337 221.801 903.488 222.662C905.655 223.531 907.165 224.992 908.011 227.054L920.696 258.05C921.202 259.085 921.455 260.199 921.455 261.4C921.455 263.801 920.546 265.871 918.735 267.593C916.94 269.323 914.828 270.184 912.408 270.184H887.355ZM874.671 314.862C873.975 317.098 872.551 318.646 870.4 319.507C868.249 320.368 865.956 320.455 863.536 319.76C861.298 318.733 859.748 317.137 858.886 314.989C858.016 312.84 858.016 310.652 858.886 308.416L865.118 292.649C866.992 289.032 869.657 287.215 873.121 287.215H926.643C928.541 287.215 930.257 287.831 931.799 289.047C933.357 290.248 934.401 291.717 934.931 293.439L941.131 308.416C941.993 310.652 941.993 312.84 941.131 314.989C940.261 317.137 938.711 318.733 936.481 319.76C934.219 320.455 931.973 320.368 929.743 319.507C927.505 318.646 925.955 317.098 925.093 314.862L920.949 304.783H879.068L874.671 314.862Z" fill="#7257FF"/>
</svg>
