<svg width="1850" height="512" viewBox="0 0 1850 512" fill="none" xmlns="http://www.w3.org/2000/svg">
<g clip-path="url(#clip0_754_1036)">
<path opacity="0.929" fill-rule="evenodd" clip-rule="evenodd" d="M201.682 42.0488C203.084 41.9161 204.46 42.0542 205.808 42.463C217.558 50.1565 229.937 56.7836 242.945 62.344C286.989 80.2448 332.653 91.8421 379.937 97.1359C385.597 99.5042 389.586 103.508 391.903 109.147C393.602 146.149 393.327 183.151 391.078 220.15C382.843 321.357 339.243 402.677 260.275 464.107C244.49 475.768 227.71 485.984 209.935 494.757C208.083 495.508 206.157 495.922 204.158 496C158.516 476.459 120.142 447.19 89.035 408.192C43.4266 351.239 19.0817 285.935 16 212.28C16.5231 208.271 17.0733 204.267 17.6505 200.269C17.954 199.101 18.6417 198.273 19.7136 197.784C21.0891 198.888 22.4645 199.993 23.8399 201.097C28.5082 211.304 35.5229 219.45 44.8839 225.535C46.4179 226.825 47.6558 228.344 48.5975 230.091C50.8587 250.552 54.7099 270.709 60.1511 290.562C66.4928 310.221 74.7454 328.998 84.9087 346.892C85.8715 347.859 86.8343 348.825 87.7971 349.791C137.573 352.078 175.947 332.612 202.92 291.391C203.738 289.778 204.013 288.121 203.745 286.42C190.946 292.966 177.192 295.727 162.483 294.704C133.534 295.161 111.94 282.874 97.7001 257.841C97.9749 257.565 98.2506 257.289 98.5254 257.013C106.641 259.187 114.893 261.119 123.283 262.812C139.759 265.177 155.714 263.244 171.148 257.013C173.205 255.29 175.405 253.771 177.75 252.457C179.089 251.121 180.052 249.74 180.638 248.315C179.433 246.723 178.058 246.17 176.512 246.658C159.672 251.733 142.479 252.147 124.933 247.901C78.7323 237.438 48.0604 209.412 32.9177 163.82C30.9995 157.314 30.4494 150.687 31.2672 143.939C31.521 143.27 31.9337 142.717 32.5051 142.283C37.3014 144.721 41.0151 148.311 43.646 153.051C70.6622 179.758 102.985 192.046 140.613 189.914C143.053 189.117 144.979 187.737 146.39 185.772C145.548 184.094 144.173 182.99 142.264 182.459C105.656 176.582 74.7091 160.153 49.4228 133.17C38.6983 119.231 31.4086 103.63 27.5536 86.367C27.673 85.3515 27.9481 84.385 28.3788 83.4677C26.0293 72.6091 26.4419 61.8401 29.6167 51.1609C30.5791 48.6732 31.9545 46.4642 33.743 44.5339C34.9909 45.1607 36.0912 45.9891 37.044 47.019C58.5005 81.8107 86.9717 109.285 122.458 129.443C142.621 139.453 162.978 149.117 183.527 158.436C200.031 167.271 213.373 179.56 223.551 195.299C226.194 200.78 228.67 206.303 230.979 211.866C232.29 209.168 233.528 206.407 234.692 203.583C234.417 203.03 234.142 202.478 233.867 201.926C234.53 195.339 234.942 188.712 235.105 182.045C235.721 161.076 245.487 146.303 264.401 137.726C278.637 133.676 291.566 136.161 303.188 145.182C310.911 146.577 318.063 149.339 324.645 153.466C326.172 154.861 327.548 156.379 328.771 158.022C328.359 158.85 327.946 159.678 327.533 160.507C305.882 164.444 297.079 177.422 301.125 199.441C303.491 210.321 306.242 221.089 309.378 231.747C315.74 275.279 302.124 311.037 268.528 339.022C239.078 362.045 205.519 374.47 167.847 376.299C154.984 386.169 142.605 396.663 130.71 407.778C151.489 430.577 175.833 448.663 203.745 462.036C263.412 430.585 306.875 383.92 334.135 322.041C352.526 276.679 361.604 229.461 361.369 180.388C361.919 162.716 361.919 145.044 361.369 127.372C306.008 120.997 253.467 105.258 203.745 80.1542C179.585 92.1037 154.552 101.768 128.647 109.147C125.996 108.025 123.384 106.782 120.807 105.42C115.96 100.828 110.87 96.5481 105.54 92.5798C104.231 90.7818 103.13 88.849 102.239 86.7812C101.58 85.3242 101.718 83.9436 102.652 82.6393C133.12 75.2522 162.279 64.3452 190.129 49.9184C193.891 47.0712 197.742 44.448 201.682 42.0488Z" fill="#FEFFFE"/>
<path d="M491.088 390.128C491.088 393.067 490.155 395.326 488.312 396.892C486.458 398.459 484.285 399.253 481.804 399.253C479.313 399.253 477.14 398.459 475.297 396.892C473.442 395.326 472.521 393.067 472.521 390.128V206.117C472.521 203.336 473.442 201.077 475.297 199.352C477.14 197.604 479.267 196.719 481.668 196.719H554.755C566.77 196.719 577.066 199.068 585.656 203.756C594.234 208.455 601.061 214.63 606.135 222.28C611.232 229.907 614.645 238.34 616.375 247.568C618.127 256.773 618.127 265.933 616.375 275.036C614.645 284.15 611.187 292.538 605.999 300.188C600.833 307.849 594.007 314.024 585.519 318.712C577.021 323.411 566.77 325.749 554.755 325.749H528.178V390.128C528.178 393.067 527.2 395.326 525.265 396.892C523.32 398.459 521.147 399.253 518.758 399.253C516.357 399.253 514.184 398.459 512.25 396.892C510.304 395.326 509.337 393.067 509.337 390.128V316.351C509.337 313.786 510.304 311.618 512.25 309.858C514.184 308.111 516.357 307.225 518.758 307.225H554.755C564.733 307.225 573.004 305.023 579.558 300.597C586.111 296.181 591.037 290.472 594.348 283.48C597.682 276.466 599.354 268.997 599.354 261.098C599.354 253.175 597.682 245.707 594.348 238.715C591.037 231.723 586.111 226.025 579.558 221.599C573.004 217.149 564.733 214.925 554.755 214.925H491.088V390.128ZM551.433 288.702C549.033 288.702 546.302 288.702 543.242 288.702C540.204 288.702 537.53 288.111 535.232 286.931C532.922 285.728 531.773 283.287 531.773 279.621C531.773 275.751 532.922 273.22 535.232 272.039C537.53 270.836 540.204 270.269 543.242 270.36C546.302 270.45 549.033 270.496 551.433 270.496C554.585 270.496 556.985 269.576 558.624 267.726C560.285 265.888 561.127 263.72 561.127 261.234C561.127 258.76 560.285 256.592 558.624 254.742C556.985 252.903 554.585 251.972 551.433 251.972H518.758C515.811 251.972 513.547 251.053 511.977 249.203C510.395 247.364 509.61 245.196 509.61 242.71C509.61 240.236 510.395 238.068 511.977 236.218C513.547 234.379 515.811 233.448 518.758 233.448H551.433C558.828 233.448 564.745 235.299 569.182 238.987C573.607 242.688 576.6 247.296 578.147 252.835C579.717 258.351 579.717 263.867 578.147 269.406C576.6 274.922 573.607 279.519 569.182 283.208C564.745 286.874 558.828 288.702 551.433 288.702Z" fill="white"/>
<path d="M667.495 390.4C667.495 393.34 666.562 395.599 664.719 397.165C662.865 398.731 660.692 399.526 658.212 399.526C655.72 399.526 653.547 398.731 651.704 397.165C649.849 395.599 648.928 393.34 648.928 390.4V205.527C648.928 202.962 649.895 200.805 651.84 199.08C653.774 197.332 655.948 196.447 658.348 196.447H731.163C742.449 196.447 752.518 198.932 761.381 203.893C770.232 208.864 777.468 215.402 783.088 223.506C788.731 231.621 792.429 240.565 794.193 250.338C795.945 260.088 795.433 269.894 792.645 279.758C789.881 289.598 784.545 298.576 776.626 306.681C772.553 310.744 768.07 314.206 763.155 317.077C758.263 319.926 753.052 322.072 747.5 323.524L790.461 384.861C792.122 387.256 792.623 389.662 791.963 392.08C791.325 394.475 790.028 396.348 788.094 397.71C786.149 399.094 783.976 399.707 781.587 399.526C779.186 399.344 777.149 398.05 775.488 395.667L724.245 322.435C721.481 318.746 721.071 315.295 723.016 312.083C724.951 308.848 727.67 307.225 731.163 307.225C739.286 307.225 746.499 305.443 752.779 301.868C759.06 298.27 764.225 293.56 768.298 287.748C772.36 281.937 774.988 275.49 776.171 268.407C777.377 261.325 776.967 254.288 774.942 247.296C772.906 240.282 769.026 233.925 763.292 228.228C759.253 223.994 754.463 220.725 748.911 218.421C743.359 216.094 737.443 214.925 731.163 214.925H667.495V390.4ZM728.113 288.702C726.839 288.702 725.36 288.747 723.699 288.838C722.027 288.929 720.468 288.883 719.012 288.702C714.188 288.339 710.934 286.693 709.273 283.753C707.634 280.791 707.589 277.84 709.136 274.9C710.706 271.971 714.006 270.496 719.012 270.496C721.947 270.496 724.848 270.451 727.704 270.36C730.582 270.269 732.983 269.577 734.894 268.271C736.828 266.977 737.807 264.582 737.807 261.098C737.807 258.317 736.828 256.058 734.894 254.333C732.983 252.585 730.719 251.7 728.113 251.7H695.165C692.218 251.7 689.954 250.78 688.384 248.93C686.803 247.092 686.018 244.924 686.018 242.438C686.018 239.964 686.803 237.796 688.384 235.946C689.954 234.107 692.218 233.176 695.165 233.176H728.113C733.848 233.176 738.785 234.572 742.949 237.353C747.102 240.111 750.333 243.607 752.643 247.841C754.941 252.086 756.102 256.592 756.102 261.37C756.102 269.088 753.325 275.581 747.773 280.847C742.244 286.091 735.691 288.702 728.113 288.702ZM745.316 384.861C746.977 387.256 747.478 389.662 746.818 392.08C746.181 394.475 744.884 396.348 742.949 397.71C741.004 399.094 738.831 399.707 736.442 399.526C734.041 399.344 731.913 398.05 730.07 395.667L704.585 358.892V390.4C704.585 393.34 703.652 395.599 701.809 397.165C699.955 398.731 697.782 399.526 695.301 399.526C692.81 399.526 690.637 398.731 688.794 397.165C686.939 395.599 686.018 393.34 686.018 390.4V330.153C686.018 326.861 687.076 324.376 689.203 322.707C691.319 321.05 693.72 320.301 696.394 320.482C699.09 320.664 701.274 321.958 702.947 324.342L745.316 384.861Z" fill="white"/>
<path d="M1022.52 266.047C1023.28 268.441 1023.09 270.802 1021.98 273.129C1020.89 275.433 1019.03 276.943 1016.43 277.669C1014.03 278.396 1011.63 278.169 1009.24 276.988C1006.84 275.785 1005.28 273.98 1004.55 271.585C998.633 253.55 987.915 238.897 972.419 227.637C965.195 222.496 957.151 218.455 948.3 215.515C939.437 212.553 930.107 211.066 920.312 211.066C903.894 211.066 889.775 214.198 877.943 220.464C866.133 226.729 856.667 234.981 849.545 245.207C842.446 255.445 837.735 266.728 835.437 279.077C833.128 291.403 833.128 303.729 835.437 316.078C837.735 328.428 842.446 339.721 849.545 349.948C856.667 360.152 866.133 368.381 877.943 374.646C889.775 380.911 903.894 384.044 920.312 384.044C930.107 384.044 939.437 382.58 948.3 379.64C957.151 376.678 965.195 372.626 972.419 367.472C987.915 356.61 998.633 341.957 1004.55 323.524C1005.28 320.959 1006.84 319.12 1009.24 318.031C1011.63 316.918 1014.03 316.714 1016.43 317.441C1019.03 318.201 1020.89 319.733 1021.98 322.026C1023.09 324.33 1023.28 326.77 1022.52 329.336C1019.03 340.028 1013.95 349.982 1007.28 359.209C1000.64 368.415 992.785 376.235 983.751 382.682C974.706 388.947 964.876 393.919 954.261 397.573C943.635 401.262 932.326 403.112 920.312 403.112C902.768 403.112 887.409 400.161 874.211 394.259C861.013 388.357 850.023 380.4 841.262 370.378C832.491 360.333 825.937 349.04 821.603 336.509C817.256 323.978 815.095 311.039 815.095 297.691C815.095 284.343 817.256 271.404 821.603 258.873C825.937 246.342 832.491 235.072 841.262 225.049C850.023 215.004 861.013 207.025 874.211 201.123C887.409 195.221 902.768 192.27 920.312 192.27C932.326 192.27 943.635 194.029 954.261 197.536C964.876 201.055 974.706 206.026 983.751 212.473C992.785 219.102 1000.64 226.979 1007.28 236.082C1013.95 245.196 1019.03 255.184 1022.52 266.047ZM863.289 331.015C861.98 328.598 861.65 326.192 862.288 323.797C862.947 321.413 864.392 319.574 866.611 318.303C869 317.009 871.401 316.691 873.801 317.35C876.191 317.985 878.045 319.506 879.353 321.89C881.561 325.374 884.189 328.643 887.227 331.696C890.287 334.727 893.564 337.258 897.056 339.278C904.088 343.705 911.847 345.907 920.312 345.907C926.979 345.907 933.213 344.67 939.016 342.184C944.841 339.71 949.779 336.259 953.852 331.833C958.278 327.599 961.736 322.525 964.228 316.623C966.708 310.721 967.96 304.365 967.96 297.555C967.96 290.926 966.708 284.684 964.228 278.804C961.736 272.902 958.278 267.84 953.852 263.595C949.779 259.361 944.841 255.956 939.016 253.38C933.213 250.78 926.979 249.475 920.312 249.475C911.847 249.475 904.088 251.598 897.056 255.831C889.866 260.076 883.961 265.888 879.353 273.265C878.045 275.66 876.191 277.215 873.801 277.942C871.401 278.668 869 278.396 866.611 277.124C864.392 275.83 862.947 273.935 862.288 271.449C861.65 268.975 861.98 266.535 863.289 264.14C869.205 253.641 877.226 245.434 887.363 239.532C897.523 233.63 908.502 230.679 920.312 230.679C929.561 230.679 938.242 232.438 946.343 235.946C954.466 239.464 961.588 244.243 967.687 250.292C973.603 256.376 978.256 263.481 981.658 271.585C985.082 279.701 986.8 288.361 986.8 297.555C986.8 306.76 985.082 315.42 981.658 323.524C978.256 331.64 973.603 338.734 967.687 344.817C961.588 351.083 954.466 355.975 946.343 359.482C938.242 362.966 929.561 364.703 920.312 364.703C914.6 364.703 908.934 363.931 903.291 362.388C897.671 360.821 892.369 358.642 887.363 355.85C877.226 349.584 869.205 341.31 863.289 331.015Z" fill="white"/>
<path d="M1052.99 214.925C1050.37 214.925 1048.14 214.017 1046.3 212.201C1044.48 210.362 1043.57 208.24 1043.57 205.845C1043.57 203.245 1044.48 201.077 1046.3 199.352C1048.14 197.604 1050.37 196.719 1052.99 196.719H1182.33C1184.9 196.719 1187.02 197.604 1188.7 199.352C1190.36 201.077 1191.2 203.245 1191.2 205.845C1191.2 208.24 1190.36 210.362 1188.7 212.201C1187.02 214.017 1184.9 214.925 1182.33 214.925H1052.99ZM1052.99 251.7C1050.37 251.7 1048.14 250.826 1046.3 249.066C1044.48 247.318 1043.57 245.241 1043.57 242.846C1043.57 240.281 1044.48 238.068 1046.3 236.218C1048.14 234.379 1050.37 233.448 1052.99 233.448H1098.95C1101.52 233.448 1103.74 234.379 1105.6 236.218C1107.44 238.068 1108.37 240.281 1108.37 242.846V390.128C1108.37 392.704 1107.44 394.917 1105.6 396.756C1103.74 398.595 1101.52 399.526 1098.95 399.526C1096.55 399.526 1094.38 398.595 1092.45 396.756C1090.5 394.917 1089.53 392.704 1089.53 390.128V251.7H1052.99ZM1182.33 233.448C1184.9 233.448 1187.02 234.379 1188.7 236.218C1190.36 238.068 1191.2 240.281 1191.2 242.846C1191.2 245.241 1190.36 247.318 1188.7 249.066C1187.02 250.826 1184.9 251.7 1182.33 251.7H1145.19V390.128C1145.19 392.704 1144.26 394.917 1142.41 396.756C1140.59 398.595 1138.38 399.526 1135.77 399.526C1133.37 399.526 1131.24 398.595 1129.4 396.756C1127.58 394.917 1126.67 392.704 1126.67 390.128V242.846C1126.67 240.281 1127.58 238.068 1129.4 236.218C1131.24 234.379 1133.37 233.448 1135.77 233.448H1182.33Z" fill="white"/>
<path d="M1326.03 381.002C1328.63 381.002 1330.85 381.933 1332.67 383.772C1334.51 385.622 1335.45 387.835 1335.45 390.4C1335.45 392.795 1334.51 394.918 1332.67 396.756C1330.85 398.595 1328.63 399.526 1326.03 399.526H1230.23C1227.83 399.526 1225.7 398.595 1223.86 396.756C1222 394.918 1221.08 392.795 1221.08 390.4V205.527C1221.08 202.962 1222 200.805 1223.86 199.08C1225.7 197.332 1227.83 196.447 1230.23 196.447H1326.03C1328.63 196.447 1330.85 197.332 1332.67 199.08C1334.51 200.805 1335.45 202.962 1335.45 205.527C1335.45 208.138 1334.51 210.362 1332.67 212.201C1330.85 214.017 1328.63 214.925 1326.03 214.925H1239.65V381.002H1326.03ZM1326.03 233.449C1328.63 233.449 1330.85 234.334 1332.67 236.082C1334.51 237.841 1335.45 240.009 1335.45 242.574C1335.45 244.969 1334.51 247.092 1332.67 248.93C1330.85 250.78 1328.63 251.7 1326.03 251.7H1276.47V270.223H1308.87C1311.44 270.223 1313.66 271.154 1315.51 272.993C1317.36 274.809 1318.29 277.022 1318.29 279.622C1318.29 282.016 1317.36 284.139 1315.51 285.978C1313.66 287.794 1311.44 288.702 1308.87 288.702H1267.32C1264.74 288.702 1262.52 287.794 1260.68 285.978C1258.82 284.139 1257.9 282.016 1257.9 279.622V242.574C1257.9 240.009 1258.82 237.841 1260.68 236.082C1262.52 234.334 1264.74 233.449 1267.32 233.449H1326.03ZM1308.87 307.225C1311.44 307.225 1313.66 308.111 1315.51 309.859C1317.36 311.618 1318.29 313.786 1318.29 316.351C1318.29 318.927 1317.36 321.141 1315.51 322.98C1313.66 324.83 1311.44 325.749 1308.87 325.749H1276.47V344H1326.03C1328.63 344 1330.85 344.931 1332.67 346.77C1334.51 348.586 1335.45 350.788 1335.45 353.353C1335.45 355.782 1334.51 357.916 1332.67 359.754C1330.85 361.57 1328.63 362.478 1326.03 362.478H1267.32C1264.74 362.478 1262.52 361.57 1260.68 359.754C1258.82 357.916 1257.9 355.782 1257.9 353.353V316.351C1257.9 313.786 1258.82 311.618 1260.68 309.859C1262.52 308.111 1264.74 307.225 1267.32 307.225H1308.87Z" fill="white"/>
<path d="M1366.63 405.449C1363.41 405.449 1360.55 404.201 1358.07 401.727C1355.61 399.252 1354.38 396.403 1354.38 393.191C1354.38 389.741 1355.61 386.778 1358.07 384.293C1360.55 381.818 1363.41 380.57 1366.63 380.57H1415.73C1428.86 380.57 1439.95 377.789 1449 372.216C1458.06 366.654 1464.95 359.174 1469.66 349.788C1474.39 340.378 1476.76 329.982 1476.76 318.597V144.938C1476.76 141.465 1477.99 138.559 1480.44 136.221C1482.92 133.86 1485.92 132.68 1489.41 132.68C1492.87 132.68 1495.76 133.86 1498.1 136.221C1500.47 138.559 1501.65 141.465 1501.65 144.938V318.597C1501.65 334.431 1498.24 348.914 1491.41 362.046C1484.61 375.156 1474.82 385.677 1462.06 393.6C1449.28 401.5 1433.84 405.449 1415.73 405.449H1366.63ZM1427.29 144.938C1427.29 141.465 1428.52 138.559 1430.98 136.221C1433.46 133.86 1436.31 132.68 1439.53 132.68C1443.01 132.68 1445.93 133.86 1448.27 136.221C1450.64 138.559 1451.82 141.465 1451.82 144.938V318.597C1451.82 329.255 1448.16 338.108 1440.85 345.157C1433.54 352.183 1424.67 355.69 1414.27 355.69H1370.36C1366.9 355.69 1363.92 354.464 1361.44 352.012C1358.95 349.538 1357.71 346.689 1357.71 343.477C1357.71 340.004 1358.95 337.03 1361.44 334.578C1363.92 332.104 1366.9 330.856 1370.36 330.856H1414.27C1417.73 330.856 1420.76 329.755 1423.38 327.541C1425.98 325.305 1427.29 322.32 1427.29 318.597V144.938Z" fill="white"/>
<path d="M1661.97 53.2734C1664.45 50.7991 1667.31 49.5505 1670.53 49.5505C1673.77 49.5505 1676.63 50.538 1679.08 52.5016C1681.09 54.9873 1682.14 57.8476 1682.27 61.0824C1682.38 64.2945 1681.59 67.1207 1679.86 69.5724L1642.27 108.935C1639.78 111.387 1636.99 112.749 1633.89 113.021C1630.8 113.271 1628 112.147 1625.52 109.662C1623.03 107.426 1621.79 104.701 1621.79 101.489C1621.79 98.2886 1622.79 95.5645 1624.79 93.3172L1661.97 53.2734ZM1561.17 395.416C1559.68 398.628 1557.39 400.853 1554.3 402.09C1551.2 403.327 1548.03 403.452 1544.79 402.453C1541.81 400.977 1539.64 398.685 1538.28 395.597C1536.91 392.51 1536.73 389.366 1537.73 386.154L1639.31 133.043C1640.55 129.593 1642.78 127.254 1646 126.006C1649.21 124.769 1652.3 124.769 1655.28 126.006C1657.29 126.494 1658.83 127.413 1659.92 128.775C1661.04 130.137 1661.85 131.568 1662.34 133.043L1763.55 386.154C1764.79 389.366 1764.79 392.51 1763.55 395.597C1762.3 398.685 1760.07 400.977 1756.86 402.453C1753.61 403.452 1750.37 403.327 1747.17 402.09C1743.95 400.853 1741.72 398.628 1740.48 395.416L1650.82 170.136L1561.17 395.416ZM1632.62 331.219C1629.37 331.219 1626.5 329.981 1624.02 327.496C1621.56 325.021 1620.33 322.048 1620.33 318.597C1620.33 315.147 1621.56 312.241 1624.02 309.88C1626.5 307.519 1629.37 306.339 1632.62 306.339H1650.46L1639.31 278.871C1638.31 275.67 1638.42 272.458 1639.67 269.246C1640.91 266.045 1643.02 263.934 1646 262.935C1649.46 261.698 1652.73 261.698 1655.83 262.935C1658.95 264.184 1661.12 266.284 1662.34 269.246L1680.59 313.785C1681.31 315.272 1681.68 316.872 1681.68 318.597C1681.68 322.048 1680.37 325.021 1677.76 327.496C1675.18 329.981 1672.14 331.219 1668.66 331.219H1632.62ZM1614.37 395.416C1613.37 398.628 1611.32 400.853 1608.23 402.09C1605.13 403.327 1601.83 403.452 1598.35 402.453C1595.13 400.977 1592.9 398.685 1591.66 395.597C1590.41 392.51 1590.41 389.366 1591.66 386.154L1600.63 363.499C1603.32 358.3 1607.16 355.69 1612.14 355.69H1689.14C1691.87 355.69 1694.34 356.575 1696.56 358.323C1698.8 360.048 1700.3 362.159 1701.06 364.634L1709.98 386.154C1711.22 389.366 1711.22 392.51 1709.98 395.597C1708.73 398.685 1706.5 400.977 1703.29 402.453C1700.04 403.452 1696.81 403.327 1693.6 402.09C1690.38 400.853 1688.15 398.628 1686.91 395.416L1680.95 380.933H1620.7L1614.37 395.416Z" fill="white"/>
</g>
<defs>
<clipPath id="clip0_754_1036">
<rect width="1850" height="512" fill="white"/>
</clipPath>
</defs>
</svg>
